<svg xmlns="http://www.w3.org/2000/svg" width="180" height="80" viewBox="0 0 180 80"><g><g><g/><g><path fill="#0d233f" d="M48.88 24.362h-4.568c-1.961 0-2.942-1.318-2.942-3.952V3.982c0-2.653.98-3.97 2.942-3.952h4.568v3.387h-3.217c-.56 0-.801.384-.801 1.13v15.377c0 .763.269 1.13.801 1.13h3.217z"/></g><g><path fill="#0d233f" d="M59.053 24.362h-3.362V9.73c0-.271-.124-.401-.37-.401h-1.626c-.246 0-.37.13-.37.4v14.633h-3.362V7.534a1.234 1.234 0 0 1 .343-1.043 1.215 1.215 0 0 1 1.035-.346h6.255a1.225 1.225 0 0 1 1.051.338 1.243 1.243 0 0 1 .362 1.05z"/></g><g><path fill="#0d233f" d="M68.894 24.358h-5.672c-1.877 0-2.802-1.231-2.802-3.704V9.85c0-2.473.934-3.709 2.802-3.709h3.363c1.868 0 2.802 1.236 2.802 3.709v6.176c0 .864-.46 1.293-1.378 1.293h-4.265v2.873c0 .66.235.988.706.988h4.444zM65.83 14.76c.168 0 .246-.112.246-.338v-4.2c0-.7-.235-1.05-.706-1.05h-.92c-.47 0-.705.35-.705 1.05v4.516z"/></g><g><path fill="#0d233f" d="M80.911 28.31h-2.847v-3.952h-5.947a1.23 1.23 0 0 1-1.041-.363 1.249 1.249 0 0 1-.343-1.055V6.14h3.363v14.605c0 .287.123.434.364.434h1.995V6.14h3.363v15.04h1.121z"/></g><g><path fill="#0d233f" d="M85.444 29.485h-3.363V7.468a1.182 1.182 0 0 1 .33-.994 1.165 1.165 0 0 1 .988-.333h4.915c1.868 0 2.802 1.237 2.802 3.71v10.68c0 2.45-.934 3.676-2.802 3.676h-2.881zm1.626-8.468c.487 0 .734-.333.734-.988v-9.716c0-.66-.247-.988-.734-.988h-1.38c-.167 0-.246.102-.246.305v11.398z"/></g><g><path fill="#0d233f" d="M100.994 24.358h-5.672c-1.883 0-2.802-1.231-2.802-3.704V9.85c0-2.473.936-3.709 2.802-3.709h3.363c1.883 0 2.802 1.236 2.802 3.709v6.176c0 .864-.46 1.293-1.378 1.293h-4.26v2.873c0 .66.236.988.706.988H101zM97.93 14.76c.162 0 .246-.112.246-.338v-4.2c0-.7-.235-1.05-.706-1.05h-.92c-.47 0-.705.35-.705 1.05v4.516z"/></g><g><path fill="#0d233f" d="M109.884 24.358h-4.232c-1.877 0-2.802-1.231-2.802-3.704V9.85c0-2.473.934-3.709 2.802-3.709h4.232v3.184h-3.004c-.471 0-.706.327-.706.988v9.88c0 .66.235.987.706.987h3.004z"/></g><g><path fill="#0d233f" d="M120.062 25.78c0 2.469-.934 3.703-2.802 3.703h-5.397v-3.178h4.136c.493 0 .74-.327.74-.988v-1.575h-2.887c-1.868 0-2.802-1.225-2.802-3.675V6.14h3.363v13.65c0 .66.235.988.706.988h1.681V6.14h3.363z"/></g><g><path fill="#0d233f" d="M124.753 29.485h-3.362V7.468a1.188 1.188 0 0 1 .334-.994 1.17 1.17 0 0 1 .988-.333h4.904c1.869 0 2.803 1.237 2.803 3.71v10.68c0 2.45-.934 3.675-2.803 3.675h-2.864zm1.62-8.468c.493 0 .74-.333.74-.988v-9.716c0-.66-.247-.988-.74-.988h-1.379c-.162 0-.24.102-.24.305v11.398z"/></g><g><path fill="#0d233f" d="M138.854 24.358h-4.232c-1.883 0-2.802-1.231-2.802-3.704V9.85c0-2.473.936-3.709 2.802-3.709h4.232v3.184h-3.004c-.471 0-.706.327-.706.988v9.88c0 .66.235.987.706.987h3.004z"/></g><g><path fill="#0d233f" d="M62.207 37.45h-.23v2.4h-.997v-5.6h.998v2.478l.201-.096 1.166-2.382h1.121l-1.272 2.354-.37.294.381.305 1.468 2.647h-1.221z"/></g><g><path fill="#0d233f" d="M67.239 38.574h-1.312l-.325 1.281h-.992l1.609-5.645h.801l1.62 5.645h-1.06zm-1.121-.813h.924l-.319-1.304-.129-.88h-.028l-.134.885z"/></g><g><path fill="#0d233f" d="M68.97 34.25h2.914v.926h-1.916v1.22l.285-.052c.109-.008.217-.008.326 0 .23-.001.46.03.683.09a1.26 1.26 0 0 1 .847.83c.084.26.124.53.117.802a1.705 1.705 0 0 1-.476 1.397 1.68 1.68 0 0 1-1.384.489h-.662c-.129 0-.263 0-.392-.034a2.444 2.444 0 0 1-.342-.068zm1.468 4.782a.718.718 0 0 0 .56-.204c.156-.2.23-.452.208-.705a1.37 1.37 0 0 0-.067-.475.639.639 0 0 0-.168-.27.587.587 0 0 0-.258-.13 1.82 1.82 0 0 0-.32-.029h-.218l-.18.04v1.694c.07.005.139.005.208 0 .077.03.155.057.235.079z"/></g><g><path fill="#0d233f" d="M72.75 34.25h2.802v.926h-1.804v1.377h1.608v.926h-1.608v1.468h1.81v.926h-2.802z"/></g><g><path fill="#0d233f" d="M78.546 35.175h-.84a39.808 39.808 0 0 1-.152 2.54 4.464 4.464 0 0 1-.364 1.558 1.13 1.13 0 0 1-.466.508c-.08.043-.164.075-.252.096a1.158 1.158 0 0 1-.23 0c-.096.01-.194.01-.291 0a1.222 1.222 0 0 1-.241-.085l.112-.914a.384.384 0 0 0 .286 0 .454.454 0 0 0 .24-.26c.078-.163.135-.336.17-.514.044-.225.083-.519.122-.875.04-.355.056-.784.079-1.275.022-.492.033-1.062.045-1.694h2.802v5.6h-1.003z"/></g><g><path fill="#0d233f" d="M80.27 34.25h.998v2.015h.639c.212 0 .423.028.627.085.194.048.373.143.522.277.161.156.283.35.353.564.096.285.14.586.129.887a2.048 2.048 0 0 1-.46 1.45 1.903 1.903 0 0 1-1.452.492h-.605a3.205 3.205 0 0 1-.387-.04 3.006 3.006 0 0 1-.364-.068zm.998 4.703c.062.018.126.031.19.04h.224a.79.79 0 0 0 .589-.221 1.024 1.024 0 0 0 .218-.75 1.324 1.324 0 0 0-.061-.458.724.724 0 0 0-.168-.282.56.56 0 0 0-.258-.136 1.386 1.386 0 0 0-.32-.034 1.242 1.242 0 0 0-.224 0l-.19.045z"/></g><g><path fill="#0d233f" d="M86.556 37.48h-1.518v2.37h-.998v-5.6h.998v2.303h1.518V34.25h.998v5.6h-.998z"/></g><g><path fill="#0d233f" d="M88.27 34.246h.998v2.01c.08-.019.16-.032.24-.04.109-.008.218-.008.326 0 .21-.001.419.025.622.079.189.046.363.142.504.277.16.155.278.35.342.564.093.284.137.582.129.88a2.093 2.093 0 0 1-.448 1.469 1.869 1.869 0 0 1-1.43.485h-.571a4.041 4.041 0 0 1-.712-.107zm.998 4.697a.858.858 0 0 0 .162.04h.196a.696.696 0 0 0 .56-.221c.156-.22.227-.488.203-.757a1.705 1.705 0 0 0-.056-.451.803.803 0 0 0-.152-.277.459.459 0 0 0-.235-.14c-.1-.024-.201-.036-.303-.035a.95.95 0 0 0-.202 0l-.168.045zm2.589-4.703h1.003v5.6h-1.003z"/></g><g><path fill="#0d233f" d="M96.209 36.863l.078-.79h-.04l-.302.846-1.58 2.93h-.785v-5.6h1.003v2.93l-.09.813h.04l.32-.87 1.58-2.873h.779v5.6h-1.003zm-1.121-4.003c.033.322.179.485.448.485s.41-.158.443-.48l.807.12a.994.994 0 0 1-.387.75 1.46 1.46 0 0 1-.874.237 2.404 2.404 0 0 1-.51-.05 1.284 1.284 0 0 1-.404-.159.912.912 0 0 1-.286-.299c-.08-.141-.129-.3-.14-.463z"/></g><g><path fill="#0d233f" d="M99.975 37.345v-.813h.482a.763.763 0 0 0 .28-.045.784.784 0 0 0 .365-.243.658.658 0 0 0 .15-.451.676.676 0 0 0-.184-.565.82.82 0 0 0-.521-.152 1.481 1.481 0 0 0-.505.085c-.13.042-.254.1-.37.175l-.252-.876.219-.101c.105-.043.214-.077.325-.102.125-.036.252-.062.38-.079.137-.018.273-.027.41-.028.188.002.376.023.56.062.178.036.346.11.494.215.15.11.268.258.342.429.092.219.136.456.129.694.001.264-.058.525-.174.762a1.08 1.08 0 0 1-.56.52v.045c.26.065.488.226.638.451.164.274.243.59.224.91a1.87 1.87 0 0 1-.145.784 1.428 1.428 0 0 1-.398.564c-.166.137-.356.24-.56.305-.221.064-.45.096-.679.096a3.73 3.73 0 0 1-.785-.079 1.858 1.858 0 0 1-.56-.203l.263-.898a2.082 2.082 0 0 0 1.037.248.82.82 0 0 0 .56-.208.86.86 0 0 0 .236-.672.761.761 0 0 0-.218-.564 1.21 1.21 0 0 0-.763-.21h-.437z"/></g><g><path fill="#0d233f" d="M105.249 38.574h-1.312l-.325 1.281h-.992l1.614-5.645h.785l1.62 5.645h-1.049zm-1.121-.813h.924l-.32-1.304-.106-.892-.134.886z"/></g><g><path fill="#0d233f" d="M110.172 35.56a1.577 1.577 0 0 1-.18.796c-.064.12-.149.228-.251.317a.979.979 0 0 1-.37.203v.05c.127.033.249.08.364.142.114.067.215.155.297.26.09.12.158.256.202.4.055.183.082.374.078.565.007.257-.045.512-.151.745a1.41 1.41 0 0 1-.392.52 1.677 1.677 0 0 1-.589.293c-.23.065-.467.097-.706.096h-.661l-.415-.034a3.342 3.342 0 0 1-.398-.073v-5.521l.645-.085c.257 0 .515-.034.767-.034.226-.001.45.017.673.057.199.03.39.101.56.208.164.102.298.246.387.418.1.212.148.444.14.678zm-1.945 1.079h.202l.19-.028a.987.987 0 0 0 .393-.288.823.823 0 0 0 .163-.52.949.949 0 0 0-.056-.355.61.61 0 0 0-.152-.226.56.56 0 0 0-.224-.119.946.946 0 0 0-.286-.04 2.16 2.16 0 0 0-.46.035v1.552zm.275 2.433a.724.724 0 0 0 .56-.22.837.837 0 0 0 .22-.632 1.051 1.051 0 0 0-.074-.418.564.564 0 0 0-.19-.237.659.659 0 0 0-.275-.113 2.93 2.93 0 0 0-.32 0h-.409v1.592a.802.802 0 0 0 .219.034z"/></g><g><path fill="#0d233f" d="M110.738 37.046a3.975 3.975 0 0 1 .487-2.168 1.64 1.64 0 0 1 1.474-.745c.31-.009.616.061.891.203.249.133.459.327.611.565.17.284.289.595.353.92.082.396.122.799.118 1.203a3.918 3.918 0 0 1-.499 2.167 1.685 1.685 0 0 1-1.474.746 1.827 1.827 0 0 1-.89-.204 1.686 1.686 0 0 1-.606-.564 2.665 2.665 0 0 1-.353-.92 6.09 6.09 0 0 1-.112-1.203zm1.048 0c.007.258.031.514.073.768.022.215.075.426.156.627.062.156.158.297.28.412.119.102.27.156.427.152a.742.742 0 0 0 .695-.468c.18-.483.259-.998.23-1.513 0-.259-.017-.517-.051-.774a2.67 2.67 0 0 0-.157-.632 1.096 1.096 0 0 0-.28-.423.647.647 0 0 0-.437-.153c-.622.023-.93.683-.93 2.004z"/></g><g><path fill="#0d233f" d="M119.261 40.847h-.706l-.095-1H115.6l-.095 1h-.706v-1.903h.482c.06-.13.11-.264.151-.4.06-.211.127-.505.202-.881.067-.378.123-.847.168-1.411.045-.565.067-1.22.062-1.982h2.802v4.674h.56zm-1.569-1.903v-3.748h-.886c-.01.795-.071 1.59-.184 2.377a7.63 7.63 0 0 1-.275 1.371z"/></g><g><path fill="#0d233f" d="M90 70.875L0 13.71h34.536v2.552H8.76L90 67.86l81.245-51.598h-25.781V13.71h34.542z"/></g><g><path fill="#0d233f" d="M90.001 80.002L.73 23.3h10.61v2.128H8.027L90.001 77.49l81.974-52.06h-3.312V23.3h10.61z"/></g></g></g></svg>